<svg xmlns="http://www.w3.org/2000/svg" width="800" height="700.048" viewBox="299.61474609375 222.14801025390625 588.3843383789062 518.8993530273438"><path d="m796.855 677.599-68.325-48.326c23.043-22.447 44.002-54.41 64.046-90.55l68.324 48.325c-27.301 31.006-50.429 61.436-64.045 90.55" fill="#a78bfa"/><circle cx="796.873" cy="605.982" r="20.166" fill="#fff"/><path d="M467.262 457.078h-7.5a.994.994 0 0 0-.994.995v3.292a.994.994 0 0 0 .994.994h1.243v4.932h5.015v-4.932h1.242a.994.994 0 0 0 .995-.994v-3.292a.994.994 0 0 0-.995-.995" fill="#e6e6e6"/><path d="M474.774 487.206a38.56 38.56 0 0 1-6.708-22.86.81.81 0 0 0-.634-.812v-1.423h-7.921v1.403h-.11a.813.813 0 0 0-.811.814q0 .03.002.059a35.2 35.2 0 0 1-6.322 23.403 2.24 2.24 0 0 0-.405 1.357l.866 26.792a2.32 2.32 0 0 0 2.3 2.238h17.916a2.32 2.32 0 0 0 2.3-2.278l.334-26.012a4.7 4.7 0 0 0-.807-2.68" fill="#2dd4bf"/><path d="M621.699 537.627a2.145 2.145 0 0 1-4.29 0" transform="translate(-156 -79.476)" opacity=".2" style="isolation:isolate"/><path fill="#fff" d="M456.161 492.368h15.124v10.083h-15.124z"/><path d="M704.602 561.742h-14.039a1.86 1.86 0 0 0-1.861 1.861v6.162a1.86 1.86 0 0 0 1.861 1.862h2.327v9.233h9.386v-9.233h2.326a1.86 1.86 0 0 0 1.862-1.862v-6.162a1.86 1.86 0 0 0-1.862-1.861" fill="#e6e6e6"/><path d="M718.664 618.139a72.18 72.18 0 0 1-12.557-42.794 1.52 1.52 0 0 0-1.188-1.519v-2.663h-14.827v2.626h-.204a1.52 1.52 0 0 0-1.52 1.524q0 .055.004.11 1.752 24.425-11.833 43.808a4.2 4.2 0 0 0-.759 2.54l1.621 50.152a4.34 4.34 0 0 0 4.305 4.19h33.537a4.343 4.343 0 0 0 4.307-4.264l.625-48.693a8.8 8.8 0 0 0-1.51-5.017" fill="#2dd4bf"/><path d="M857.676 643.226a4.016 4.016 0 0 1-8.032 0" transform="translate(-156 -79.476)" opacity=".2" style="isolation:isolate"/><path d="M713.355 634.797h-29.191a2.997 2.997 0 0 0-2.963 3.453l4.412 28.673h25.33l5.358-28.576a2.997 2.997 0 0 0-2.946-3.55" fill="#fff"/><path d="M664.546 677.52h-83.688c5.851-31.633 4.505-69.832 0-110.912h83.688c-4.385 41.08-5.695 79.279 0 110.912" fill="#a78bfa"/><circle cx="623.206" cy="619.039" r="20.166" fill="#fff"/><path fill="#ffb8b8" d="m322.243 328.466 18.787-1.708 11.956-29.034-21.349-11.956zm172.417 79.708a10.593 10.593 0 0 0-9.201-14.517l-29.17-1.739-4.295 14.282 30.029 8.247a10.593 10.593 0 0 0 12.637-6.273"/><path d="m463.339 414.687-.321-26.8-64.793-10.338L348.31 320.3a16.34 16.34 0 0 0-21.295-2.912 16.338 16.338 0 0 0-2.846 24.922l41.18 50.678Z" fill="#2dd4bf"/><path d="M307.726 716.167h17.079l42.363-191.534 43.887 59.169 25.62 128.095H452.9l-3.416-137.489-57.216-146.882h-56.362c-15.402 27.875-27.484 56.609-13.663 86.25Z" fill="#2f2e41"/><path d="M426.204 727.8a4.457 4.457 0 0 0 3.476 5.719l41.793 7.416a6.876 6.876 0 0 0 7.801-4.713 6.834 6.834 0 0 0-3.342-8.126 63.9 63.9 0 0 1-23.048-20.038c-4.594 4.277-9.728 3.875-15.18.723l-5.782.723Zm-126.386 0a4.457 4.457 0 0 0 3.475 5.719l41.793 7.416a6.876 6.876 0 0 0 7.801-4.713 6.834 6.834 0 0 0-3.342-8.126 63.9 63.9 0 0 1-23.048-20.038c-4.594 4.277-9.728 3.875-15.18.723l-5.782.723Z" fill="#cbd5e1"/><circle cx="353.413" cy="284.487" r="23.911" fill="#ffb8b8"/><path d="m332.064 433.931 62.339-1.708-18.308-57.62c11.378-18.239-.073-36.46-16.278-54.676l-12.81-8.54-20.494-1.708a50.3 50.3 0 0 0-13.55 35.05c.406 27.827 5.334 58.12 19.1 89.202" fill="#2dd4bf"/><path d="M475.291 472.716a10.593 10.593 0 0 0-2.749-16.966l-26.133-13.075-9.567 11.441 24.363 19.395a10.593 10.593 0 0 0 14.086-.795" fill="#ffb8b8"/><path d="m443.933 466.382 10.248-24.765-55.502-34.994-23.37-72.268a16.34 16.34 0 0 0-18.432-11.054 16.338 16.338 0 0 0-12.421 21.793l17.923 62.791Z" fill="#2dd4bf"/><path d="M314.13 275.093c0 9.304 6.042 23.713 13.664 29.89 5.128 4.155 11.904 3.98 14.517-1.709 2.68-5.835 11.92-19.552 28.181-28.18 21.678-11.503-7.688-31.182-28.18-28.181-15.4 2.254-28.182 12.617-28.182 28.18" fill="#2f2e41"/><circle cx="328.648" cy="245.205" r="17.079" fill="#2f2e41"/><path d="M348.289 239.227a17.07 17.07 0 0 0-15.798-17.015c.424-.031.848-.064 1.28-.064a17.08 17.08 0 0 1 0 34.158c-.432 0-.856-.033-1.28-.064a17.07 17.07 0 0 0 15.798-17.015" fill="#2f2e41"/><ellipse cx="353.84" cy="287.903" rx="3.843" ry="5.124" fill="#ffb8b8"/><path fill="#a78bfa" d="M837.751 684.845H571.879l-56.301-266.151h-48.049v-11.942h57.729l56.301 266.15h256.192z"/><circle cx="610.841" cy="707.877" r="25.591" fill="#3f3d56"/><circle cx="801.923" cy="707.877" r="25.591" fill="#3f3d56"/><path d="M832.903 679.22H574.225l-45.641-225.55h347.151a12.266 12.266 0 0 1 12.116 14.166l-42.833 201.025a12.204 12.204 0 0 1-12.115 10.36m-255.869-3.411h255.87a8.806 8.806 0 0 0 8.742-7.478l42.833-201.025a8.85 8.85 0 0 0-8.744-10.225h-343.01Z" fill="#a78bfa"/><path fill="#a78bfa" d="m624.513 678.499-29.89-222.846 3.366-.556 29.89 222.846zm166.199-1.711-3.369-.546 29.017-221.14 3.369.546zm-82.597-221.413h3.412v222.846h-3.412z"/><path fill="#a78bfa" d="m546.006 518.5.009-3.413 330.295.802-.009 3.412zm16.688 103.91 290.171-1.985.024 3.412-290.172 1.985z"/><ellipse cx="472.648" cy="411.017" rx="18.767" ry="10.237" fill="#a78bfa"/></svg>